<?xml version="1.0" encoding="utf-8" standalone="no"?>
<!DOCTYPE svg PUBLIC "-//W3C//DTD SVG 1.1//EN"
  "http://www.w3.org/Graphics/SVG/1.1/DTD/svg11.dtd">
<svg xmlns:xlink="http://www.w3.org/1999/xlink" width="460.8pt" height="345.6pt" viewBox="0 0 460.8 345.6" xmlns="http://www.w3.org/2000/svg" version="1.1">
 <metadata>
  <rdf:RDF xmlns:dc="http://purl.org/dc/elements/1.1/" xmlns:cc="http://creativecommons.org/ns#" xmlns:rdf="http://www.w3.org/1999/02/22-rdf-syntax-ns#">
   <cc:Work>
    <dc:type rdf:resource="http://purl.org/dc/dcmitype/StillImage"/>
    <dc:date>2026-04-17T00:15:10.512712</dc:date>
    <dc:format>image/svg+xml</dc:format>
    <dc:creator>
     <cc:Agent>
      <dc:title>Matplotlib v3.10.8, https://matplotlib.org/</dc:title>
     </cc:Agent>
    </dc:creator>
   </cc:Work>
  </rdf:RDF>
 </metadata>
 <defs>
  <style type="text/css">*{stroke-linejoin: round; stroke-linecap: butt}</style>
 </defs>
 <g id="figure_1">
  <g id="patch_1">
   <path d="M 0 345.6 
L 460.8 345.6 
L 460.8 0 
L 0 0 
z
" style="fill: #ffffff"/>
  </g>
  <g id="axes_1">
   <g id="patch_2">
    <path d="M 57.6 307.584 
L 414.72 307.584 
L 414.72 41.472 
L 57.6 41.472 
z
" style="fill: #ffffff"/>
   </g>
   <g id="FillBetweenPolyCollection_1">
    <defs>
     <path id="m70775ddc93" d="M 110.729156 -39.977993 
L 110.729156 -38.016 
L 111.058185 -38.016 
L 111.387215 -38.016 
L 111.716244 -38.016 
L 112.045273 -38.016 
L 112.374302 -38.016 
L 112.703332 -38.016 
L 113.032361 -38.016 
L 113.36139 -38.016 
L 113.69042 -38.016 
L 114.019449 -38.016 
L 114.348478 -38.016 
L 114.677508 -38.016 
L 115.006537 -38.016 
L 115.335566 -38.016 
L 115.664596 -38.016 
L 115.993625 -38.016 
L 116.322654 -38.016 
L 116.651683 -38.016 
L 116.980713 -38.016 
L 117.309742 -38.016 
L 117.638771 -38.016 
L 117.967801 -38.016 
L 118.29683 -38.016 
L 118.625859 -38.016 
L 118.954889 -38.016 
L 119.283918 -38.016 
L 119.612947 -38.016 
L 119.941977 -38.016 
L 120.271006 -38.016 
L 120.600035 -38.016 
L 120.929064 -38.016 
L 121.258094 -38.016 
L 121.587123 -38.016 
L 121.916152 -38.016 
L 122.245182 -38.016 
L 122.574211 -38.016 
L 122.90324 -38.016 
L 123.23227 -38.016 
L 123.561299 -38.016 
L 123.890328 -38.016 
L 124.219358 -38.016 
L 124.548387 -38.016 
L 124.877416 -38.016 
L 125.206445 -38.016 
L 125.535475 -38.016 
L 125.864504 -38.016 
L 126.193533 -38.016 
L 126.522563 -38.016 
L 126.851592 -38.016 
L 127.180621 -38.016 
L 127.509651 -38.016 
L 127.83868 -38.016 
L 128.167709 -38.016 
L 128.496739 -38.016 
L 128.825768 -38.016 
L 129.154797 -38.016 
L 129.483826 -38.016 
L 129.812856 -38.016 
L 130.141885 -38.016 
L 130.470914 -38.016 
L 130.799944 -38.016 
L 131.128973 -38.016 
L 131.458002 -38.016 
L 131.787032 -38.016 
L 132.116061 -38.016 
L 132.44509 -38.016 
L 132.77412 -38.016 
L 133.103149 -38.016 
L 133.432178 -38.016 
L 133.761207 -38.016 
L 134.090237 -38.016 
L 134.419266 -38.016 
L 134.748295 -38.016 
L 135.077325 -38.016 
L 135.406354 -38.016 
L 135.735383 -38.016 
L 136.064413 -38.016 
L 136.393442 -38.016 
L 136.722471 -38.016 
L 137.051501 -38.016 
L 137.38053 -38.016 
L 137.709559 -38.016 
L 138.038588 -38.016 
L 138.367618 -38.016 
L 138.696647 -38.016 
L 139.025676 -38.016 
L 139.354706 -38.016 
L 139.683735 -38.016 
L 140.012764 -38.016 
L 140.341794 -38.016 
L 140.670823 -38.016 
L 140.999852 -38.016 
L 141.328882 -38.016 
L 141.657911 -38.016 
L 141.98694 -38.016 
L 142.315969 -38.016 
L 142.644999 -38.016 
L 142.974028 -38.016 
L 143.303057 -38.016 
L 143.632087 -38.016 
L 143.961116 -38.016 
L 144.290145 -38.016 
L 144.619175 -38.016 
L 144.948204 -38.016 
L 145.277233 -38.016 
L 145.606262 -38.016 
L 145.935292 -38.016 
L 146.264321 -38.016 
L 146.59335 -38.016 
L 146.92238 -38.016 
L 147.251409 -38.016 
L 147.580438 -38.016 
L 147.909468 -38.016 
L 148.238497 -38.016 
L 148.567526 -38.016 
L 148.896556 -38.016 
L 149.225585 -38.016 
L 149.554614 -38.016 
L 149.883643 -38.016 
L 150.212673 -38.016 
L 150.541702 -38.016 
L 150.870731 -38.016 
L 151.199761 -38.016 
L 151.52879 -38.016 
L 151.857819 -38.016 
L 152.186849 -38.016 
L 152.515878 -38.016 
L 152.844907 -38.016 
L 153.173937 -38.016 
L 153.502966 -38.016 
L 153.831995 -38.016 
L 154.161024 -38.016 
L 154.490054 -38.016 
L 154.819083 -38.016 
L 155.148112 -38.016 
L 155.477142 -38.016 
L 155.806171 -38.016 
L 156.1352 -38.016 
L 156.46423 -38.016 
L 156.793259 -38.016 
L 157.122288 -38.016 
L 157.451318 -38.016 
L 157.780347 -38.016 
L 158.109376 -38.016 
L 158.438405 -38.016 
L 158.767435 -38.016 
L 159.096464 -38.016 
L 159.425493 -38.016 
L 159.754523 -38.016 
L 160.083552 -38.016 
L 160.412581 -38.016 
L 160.741611 -38.016 
L 161.07064 -38.016 
L 161.399669 -38.016 
L 161.728699 -38.016 
L 162.057728 -38.016 
L 162.386757 -38.016 
L 162.715786 -38.016 
L 163.044816 -38.016 
L 163.373845 -38.016 
L 163.702874 -38.016 
L 164.031904 -38.016 
L 164.360933 -38.016 
L 164.689962 -38.016 
L 165.018992 -38.016 
L 165.348021 -38.016 
L 165.67705 -38.016 
L 166.00608 -38.016 
L 166.335109 -38.016 
L 166.664138 -38.016 
L 166.993167 -38.016 
L 167.322197 -38.016 
L 167.651226 -38.016 
L 167.980255 -38.016 
L 168.309285 -38.016 
L 168.638314 -38.016 
L 168.967343 -38.016 
L 169.296373 -38.016 
L 169.625402 -38.016 
L 169.954431 -38.016 
L 170.283461 -38.016 
L 170.61249 -38.016 
L 170.941519 -38.016 
L 171.270548 -38.016 
L 171.599578 -38.016 
L 171.928607 -38.016 
L 172.257636 -38.016 
L 172.586666 -38.016 
L 172.915695 -38.016 
L 173.244724 -38.016 
L 173.573754 -38.016 
L 173.902783 -38.016 
L 174.231812 -38.016 
L 174.560842 -38.016 
L 174.889871 -38.016 
L 175.2189 -38.016 
L 175.547929 -38.016 
L 175.876959 -38.016 
L 176.205988 -38.016 
L 176.205988 -39.977993 
L 176.205988 -39.977993 
L 175.876959 -40.215654 
L 175.547929 -40.478507 
L 175.2189 -40.76875 
L 174.889871 -41.088718 
L 174.560842 -41.440882 
L 174.231812 -41.827848 
L 173.902783 -42.252361 
L 173.573754 -42.717301 
L 173.244724 -43.225683 
L 172.915695 -43.780651 
L 172.586666 -44.385474 
L 172.257636 -45.043539 
L 171.928607 -45.758348 
L 171.599578 -46.533502 
L 171.270548 -47.372693 
L 170.941519 -48.279693 
L 170.61249 -49.258338 
L 170.283461 -50.312509 
L 169.954431 -51.446121 
L 169.625402 -52.663098 
L 169.296373 -53.967351 
L 168.967343 -55.362759 
L 168.638314 -56.853141 
L 168.309285 -58.442232 
L 167.980255 -60.133653 
L 167.651226 -61.930885 
L 167.322197 -63.837235 
L 166.993167 -65.855809 
L 166.664138 -67.98948 
L 166.335109 -70.240853 
L 166.00608 -72.612238 
L 165.67705 -75.105613 
L 165.348021 -77.722597 
L 165.018992 -80.464416 
L 164.689962 -83.331876 
L 164.360933 -86.325334 
L 164.031904 -89.444672 
L 163.702874 -92.689273 
L 163.373845 -96.058002 
L 163.044816 -99.549184 
L 162.715786 -103.16059 
L 162.386757 -106.889427 
L 162.057728 -110.73233 
L 161.728699 -114.685356 
L 161.399669 -118.743988 
L 161.07064 -122.903139 
L 160.741611 -127.15716 
L 160.412581 -131.499857 
L 160.083552 -135.924512 
L 159.754523 -140.423902 
L 159.425493 -144.990334 
L 159.096464 -149.615675 
L 158.767435 -154.291391 
L 158.438405 -159.008592 
L 158.109376 -163.758072 
L 157.780347 -168.530364 
L 157.451318 -173.315793 
L 157.122288 -178.104526 
L 156.793259 -182.886635 
L 156.46423 -187.652153 
L 156.1352 -192.391135 
L 155.806171 -197.093717 
L 155.477142 -201.750176 
L 155.148112 -206.350992 
L 154.819083 -210.886897 
L 154.490054 -215.34894 
L 154.161024 -219.728528 
L 153.831995 -224.017484 
L 153.502966 -228.208083 
L 153.173937 -232.293094 
L 152.844907 -236.265816 
L 152.515878 -240.120101 
L 152.186849 -243.850382 
L 151.857819 -247.451682 
L 151.52879 -250.919631 
L 151.199761 -254.250461 
L 150.870731 -257.441008 
L 150.541702 -260.488697 
L 150.212673 -263.391529 
L 149.883643 -266.148055 
L 149.554614 -268.757346 
L 149.225585 -271.218963 
L 148.896556 -273.532914 
L 148.567526 -275.69961 
L 148.238497 -277.719822 
L 147.909468 -279.594624 
L 147.580438 -281.325348 
L 147.251409 -282.913525 
L 146.92238 -284.360831 
L 146.59335 -285.669035 
L 146.264321 -286.839942 
L 145.935292 -287.875345 
L 145.606262 -288.776976 
L 145.277233 -289.546455 
L 144.948204 -290.185257 
L 144.619175 -290.694668 
L 144.290145 -291.075756 
L 143.961116 -291.329347 
L 143.632087 -291.456 
L 143.303057 -291.456 
L 142.974028 -291.329347 
L 142.644999 -291.075756 
L 142.315969 -290.694668 
L 141.98694 -290.185257 
L 141.657911 -289.546455 
L 141.328882 -288.776976 
L 140.999852 -287.875345 
L 140.670823 -286.839942 
L 140.341794 -285.669035 
L 140.012764 -284.360831 
L 139.683735 -282.913525 
L 139.354706 -281.325348 
L 139.025676 -279.594624 
L 138.696647 -277.719822 
L 138.367618 -275.69961 
L 138.038588 -273.532914 
L 137.709559 -271.218963 
L 137.38053 -268.757346 
L 137.051501 -266.148055 
L 136.722471 -263.391529 
L 136.393442 -260.488697 
L 136.064413 -257.441008 
L 135.735383 -254.250461 
L 135.406354 -250.919631 
L 135.077325 -247.451682 
L 134.748295 -243.850382 
L 134.419266 -240.120101 
L 134.090237 -236.265816 
L 133.761207 -232.293094 
L 133.432178 -228.208083 
L 133.103149 -224.017484 
L 132.77412 -219.728528 
L 132.44509 -215.34894 
L 132.116061 -210.886897 
L 131.787032 -206.350992 
L 131.458002 -201.750176 
L 131.128973 -197.093717 
L 130.799944 -192.391135 
L 130.470914 -187.652153 
L 130.141885 -182.886635 
L 129.812856 -178.104526 
L 129.483826 -173.315793 
L 129.154797 -168.530364 
L 128.825768 -163.758072 
L 128.496739 -159.008592 
L 128.167709 -154.291391 
L 127.83868 -149.615675 
L 127.509651 -144.990334 
L 127.180621 -140.423902 
L 126.851592 -135.924512 
L 126.522563 -131.499857 
L 126.193533 -127.15716 
L 125.864504 -122.903139 
L 125.535475 -118.743988 
L 125.206445 -114.685356 
L 124.877416 -110.73233 
L 124.548387 -106.889427 
L 124.219358 -103.16059 
L 123.890328 -99.549184 
L 123.561299 -96.058002 
L 123.23227 -92.689273 
L 122.90324 -89.444672 
L 122.574211 -86.325334 
L 122.245182 -83.331876 
L 121.916152 -80.464416 
L 121.587123 -77.722597 
L 121.258094 -75.105613 
L 120.929064 -72.612238 
L 120.600035 -70.240853 
L 120.271006 -67.98948 
L 119.941977 -65.855809 
L 119.612947 -63.837235 
L 119.283918 -61.930885 
L 118.954889 -60.133653 
L 118.625859 -58.442232 
L 118.29683 -56.853141 
L 117.967801 -55.362759 
L 117.638771 -53.967351 
L 117.309742 -52.663098 
L 116.980713 -51.446121 
L 116.651683 -50.312509 
L 116.322654 -49.258338 
L 115.993625 -48.279693 
L 115.664596 -47.372693 
L 115.335566 -46.533502 
L 115.006537 -45.758348 
L 114.677508 -45.043539 
L 114.348478 -44.385474 
L 114.019449 -43.780651 
L 113.69042 -43.225683 
L 113.36139 -42.717301 
L 113.032361 -42.252361 
L 112.703332 -41.827848 
L 112.374302 -41.440882 
L 112.045273 -41.088718 
L 111.716244 -40.76875 
L 111.387215 -40.478507 
L 111.058185 -40.215654 
L 110.729156 -39.977993 
z
" style="stroke: #ff0000"/>
    </defs>
    <g clip-path="url(#p03172c0571)">
     <use xlink:href="#m70775ddc93" x="0" y="345.6" style="fill: #ff0000; fill-opacity: 0.3; stroke: #ff0000"/>
    </g>
   </g>
   <g id="FillBetweenPolyCollection_2">
    <defs>
     <path id="m244f58b3fb" d="M 73.832727 -38.219821 
L 73.832727 -38.016 
L 75.464157 -38.016 
L 77.095587 -38.016 
L 78.727017 -38.016 
L 80.358447 -38.016 
L 81.989877 -38.016 
L 83.621307 -38.016 
L 85.252736 -38.016 
L 86.884166 -38.016 
L 88.515596 -38.016 
L 90.147026 -38.016 
L 91.778456 -38.016 
L 93.409886 -38.016 
L 95.041316 -38.016 
L 96.672746 -38.016 
L 98.304175 -38.016 
L 99.935605 -38.016 
L 101.567035 -38.016 
L 103.198465 -38.016 
L 104.829895 -38.016 
L 106.461325 -38.016 
L 108.092755 -38.016 
L 109.724185 -38.016 
L 111.355614 -38.016 
L 112.987044 -38.016 
L 114.618474 -38.016 
L 116.249904 -38.016 
L 117.881334 -38.016 
L 119.512764 -38.016 
L 121.144194 -38.016 
L 122.775624 -38.016 
L 124.407053 -38.016 
L 126.038483 -38.016 
L 127.669913 -38.016 
L 129.301343 -38.016 
L 130.932773 -38.016 
L 132.564203 -38.016 
L 134.195633 -38.016 
L 135.827063 -38.016 
L 137.458492 -38.016 
L 139.089922 -38.016 
L 140.721352 -38.016 
L 142.352782 -38.016 
L 143.984212 -38.016 
L 145.615642 -38.016 
L 147.247072 -38.016 
L 148.878502 -38.016 
L 150.509931 -38.016 
L 152.141361 -38.016 
L 153.772791 -38.016 
L 155.404221 -38.016 
L 157.035651 -38.016 
L 158.667081 -38.016 
L 160.298511 -38.016 
L 161.929941 -38.016 
L 163.56137 -38.016 
L 165.1928 -38.016 
L 166.82423 -38.016 
L 168.45566 -38.016 
L 170.08709 -38.016 
L 171.71852 -38.016 
L 173.34995 -38.016 
L 174.98138 -38.016 
L 176.61281 -38.016 
L 178.244239 -38.016 
L 179.875669 -38.016 
L 181.507099 -38.016 
L 183.138529 -38.016 
L 184.769959 -38.016 
L 186.401389 -38.016 
L 188.032819 -38.016 
L 189.664249 -38.016 
L 191.295678 -38.016 
L 192.927108 -38.016 
L 194.558538 -38.016 
L 196.189968 -38.016 
L 197.821398 -38.016 
L 199.452828 -38.016 
L 201.084258 -38.016 
L 202.715688 -38.016 
L 204.347117 -38.016 
L 205.978547 -38.016 
L 207.609977 -38.016 
L 209.241407 -38.016 
L 210.872837 -38.016 
L 212.504267 -38.016 
L 214.135697 -38.016 
L 215.767127 -38.016 
L 217.398556 -38.016 
L 219.029986 -38.016 
L 220.661416 -38.016 
L 222.292846 -38.016 
L 223.924276 -38.016 
L 225.555706 -38.016 
L 227.187136 -38.016 
L 228.818566 -38.016 
L 230.449995 -38.016 
L 232.081425 -38.016 
L 233.712855 -38.016 
L 235.344285 -38.016 
L 236.975715 -38.016 
L 238.607145 -38.016 
L 240.238575 -38.016 
L 241.870005 -38.016 
L 243.501434 -38.016 
L 245.132864 -38.016 
L 246.764294 -38.016 
L 248.395724 -38.016 
L 250.027154 -38.016 
L 251.658584 -38.016 
L 253.290014 -38.016 
L 254.921444 -38.016 
L 256.552873 -38.016 
L 258.184303 -38.016 
L 259.815733 -38.016 
L 261.447163 -38.016 
L 263.078593 -38.016 
L 264.710023 -38.016 
L 266.341453 -38.016 
L 267.972883 -38.016 
L 269.604312 -38.016 
L 271.235742 -38.016 
L 272.867172 -38.016 
L 274.498602 -38.016 
L 276.130032 -38.016 
L 277.761462 -38.016 
L 279.392892 -38.016 
L 281.024322 -38.016 
L 282.655751 -38.016 
L 284.287181 -38.016 
L 285.918611 -38.016 
L 287.550041 -38.016 
L 289.181471 -38.016 
L 290.812901 -38.016 
L 292.444331 -38.016 
L 294.075761 -38.016 
L 295.70719 -38.016 
L 297.33862 -38.016 
L 298.97005 -38.016 
L 300.60148 -38.016 
L 302.23291 -38.016 
L 303.86434 -38.016 
L 305.49577 -38.016 
L 307.1272 -38.016 
L 308.75863 -38.016 
L 310.390059 -38.016 
L 312.021489 -38.016 
L 313.652919 -38.016 
L 315.284349 -38.016 
L 316.915779 -38.016 
L 318.547209 -38.016 
L 320.178639 -38.016 
L 321.810069 -38.016 
L 323.441498 -38.016 
L 325.072928 -38.016 
L 326.704358 -38.016 
L 328.335788 -38.016 
L 329.967218 -38.016 
L 331.598648 -38.016 
L 333.230078 -38.016 
L 334.861508 -38.016 
L 336.492937 -38.016 
L 338.124367 -38.016 
L 339.755797 -38.016 
L 341.387227 -38.016 
L 343.018657 -38.016 
L 344.650087 -38.016 
L 346.281517 -38.016 
L 347.912947 -38.016 
L 349.544376 -38.016 
L 351.175806 -38.016 
L 352.807236 -38.016 
L 354.438666 -38.016 
L 356.070096 -38.016 
L 357.701526 -38.016 
L 359.332956 -38.016 
L 360.964386 -38.016 
L 362.595815 -38.016 
L 364.227245 -38.016 
L 365.858675 -38.016 
L 367.490105 -38.016 
L 369.121535 -38.016 
L 370.752965 -38.016 
L 372.384395 -38.016 
L 374.015825 -38.016 
L 375.647254 -38.016 
L 377.278684 -38.016 
L 378.910114 -38.016 
L 380.541544 -38.016 
L 382.172974 -38.016 
L 383.804404 -38.016 
L 385.435834 -38.016 
L 387.067264 -38.016 
L 388.698693 -38.016 
L 390.330123 -38.016 
L 391.961553 -38.016 
L 393.592983 -38.016 
L 395.224413 -38.016 
L 396.855843 -38.016 
L 398.487273 -38.016 
L 398.487273 -38.246774 
L 398.487273 -38.246774 
L 396.855843 -38.282482 
L 395.224413 -38.323063 
L 393.592983 -38.369073 
L 391.961553 -38.421118 
L 390.330123 -38.47985 
L 388.698693 -38.545974 
L 387.067264 -38.620246 
L 385.435834 -38.703474 
L 383.804404 -38.796516 
L 382.172974 -38.900285 
L 380.541544 -39.015742 
L 378.910114 -39.143901 
L 377.278684 -39.285818 
L 375.647254 -39.442597 
L 374.015825 -39.615378 
L 372.384395 -39.805338 
L 370.752965 -40.013682 
L 369.121535 -40.241637 
L 367.490105 -40.490445 
L 365.858675 -40.761352 
L 364.227245 -41.055602 
L 362.595815 -41.374422 
L 360.964386 -41.719016 
L 359.332956 -42.090546 
L 357.701526 -42.490124 
L 356.070096 -42.918797 
L 354.438666 -43.377534 
L 352.807236 -43.867206 
L 351.175806 -44.388579 
L 349.544376 -44.942294 
L 347.912947 -45.528855 
L 346.281517 -46.148613 
L 344.650087 -46.801752 
L 343.018657 -47.48828 
L 341.387227 -48.208013 
L 339.755797 -48.960567 
L 338.124367 -49.745347 
L 336.492937 -50.561545 
L 334.861508 -51.408126 
L 333.230078 -52.283835 
L 331.598648 -53.187189 
L 329.967218 -54.116482 
L 328.335788 -55.069789 
L 326.704358 -56.044974 
L 325.072928 -57.039698 
L 323.441498 -58.051433 
L 321.810069 -59.077476 
L 320.178639 -60.114968 
L 318.547209 -61.160915 
L 316.915779 -62.212209 
L 315.284349 -63.265653 
L 313.652919 -64.317989 
L 312.021489 -65.365923 
L 310.390059 -66.406159 
L 308.75863 -67.435424 
L 307.1272 -68.450501 
L 305.49577 -69.448258 
L 303.86434 -70.425681 
L 302.23291 -71.379897 
L 300.60148 -72.30821 
L 298.97005 -73.208117 
L 297.33862 -74.077341 
L 295.70719 -74.913845 
L 294.075761 -75.715857 
L 292.444331 -76.481877 
L 290.812901 -77.210697 
L 289.181471 -77.901404 
L 287.550041 -78.553386 
L 285.918611 -79.16633 
L 284.287181 -79.740224 
L 282.655751 -80.275343 
L 281.024322 -80.772244 
L 279.392892 -81.231745 
L 277.761462 -81.654914 
L 276.130032 -82.043042 
L 274.498602 -82.397623 
L 272.867172 -82.720323 
L 271.235742 -83.01296 
L 269.604312 -83.277464 
L 267.972883 -83.515856 
L 266.341453 -83.73021 
L 264.710023 -83.922623 
L 263.078593 -84.095185 
L 261.447163 -84.24995 
L 259.815733 -84.388902 
L 258.184303 -84.513932 
L 256.552873 -84.626811 
L 254.921444 -84.729168 
L 253.290014 -84.822467 
L 251.658584 -84.907992 
L 250.027154 -84.98683 
L 248.395724 -85.059862 
L 246.764294 -85.127754 
L 245.132864 -85.19095 
L 243.501434 -85.249673 
L 241.870005 -85.303924 
L 240.238575 -85.35349 
L 238.607145 -85.397946 
L 236.975715 -85.436666 
L 235.344285 -85.46884 
L 233.712855 -85.493481 
L 232.081425 -85.509445 
L 230.449995 -85.51545 
L 228.818566 -85.51009 
L 227.187136 -85.491859 
L 225.555706 -85.45917 
L 223.924276 -85.410375 
L 222.292846 -85.343788 
L 220.661416 -85.257703 
L 219.029986 -85.150419 
L 217.398556 -85.020256 
L 215.767127 -84.865576 
L 214.135697 -84.684802 
L 212.504267 -84.476433 
L 210.872837 -84.239066 
L 209.241407 -83.971403 
L 207.609977 -83.672273 
L 205.978547 -83.340638 
L 204.347117 -82.975608 
L 202.715688 -82.576451 
L 201.084258 -82.142599 
L 199.452828 -81.673655 
L 197.821398 -81.1694 
L 196.189968 -80.629798 
L 194.558538 -80.054993 
L 192.927108 -79.44532 
L 191.295678 -78.801294 
L 189.664249 -78.123616 
L 188.032819 -77.413168 
L 186.401389 -76.67101 
L 184.769959 -75.898371 
L 183.138529 -75.096646 
L 181.507099 -74.267389 
L 179.875669 -73.4123 
L 178.244239 -72.533219 
L 176.61281 -71.632114 
L 174.98138 -70.711067 
L 173.34995 -69.772264 
L 171.71852 -68.817981 
L 170.08709 -67.850567 
L 168.45566 -66.872433 
L 166.82423 -65.886034 
L 165.1928 -64.893855 
L 163.56137 -63.898393 
L 161.929941 -62.902144 
L 160.298511 -61.907586 
L 158.667081 -60.91716 
L 157.035651 -59.933262 
L 155.404221 -58.958221 
L 153.772791 -57.994289 
L 152.141361 -57.043628 
L 150.509931 -56.108295 
L 148.878502 -55.190233 
L 147.247072 -54.291259 
L 145.615642 -53.413059 
L 143.984212 -52.557174 
L 142.352782 -51.725 
L 140.721352 -50.917779 
L 139.089922 -50.136599 
L 137.458492 -49.38239 
L 135.827063 -48.655922 
L 134.195633 -47.957809 
L 132.564203 -47.288511 
L 130.932773 -46.648335 
L 129.301343 -46.03744 
L 127.669913 -45.455846 
L 126.038483 -44.903437 
L 124.407053 -44.379971 
L 122.775624 -43.885085 
L 121.144194 -43.418308 
L 119.512764 -42.979068 
L 117.881334 -42.566702 
L 116.249904 -42.180467 
L 114.618474 -41.819549 
L 112.987044 -41.483072 
L 111.355614 -41.170112 
L 109.724185 -40.879702 
L 108.092755 -40.610843 
L 106.461325 -40.362516 
L 104.829895 -40.133686 
L 103.198465 -39.923312 
L 101.567035 -39.730356 
L 99.935605 -39.553787 
L 98.304175 -39.392589 
L 96.672746 -39.245765 
L 95.041316 -39.112346 
L 93.409886 -38.991388 
L 91.778456 -38.881982 
L 90.147026 -38.783256 
L 88.515596 -38.694374 
L 86.884166 -38.614539 
L 85.252736 -38.542997 
L 83.621307 -38.479036 
L 81.989877 -38.421985 
L 80.358447 -38.371216 
L 78.727017 -38.32614 
L 77.095587 -38.286214 
L 75.464157 -38.25093 
L 73.832727 -38.219821 
z
" style="stroke: #008000"/>
    </defs>
    <g clip-path="url(#p03172c0571)">
     <use xlink:href="#m244f58b3fb" x="0" y="345.6" style="fill: #008000; fill-opacity: 0.3; stroke: #008000"/>
    </g>
   </g>
   <g id="matplotlib.axis_1">
    <g id="xtick_1">
     <g id="line2d_1">
      <defs>
       <path id="m1c9438561b" d="M 0 0 
L 0 3.5 
" style="stroke: #000000; stroke-width: 0.8"/>
      </defs>
      <g>
       <use xlink:href="#m1c9438561b" x="96.982724" y="307.584" style="stroke: #000000; stroke-width: 0.8"/>
      </g>
     </g>
     <g id="text_1">
      <!-- 20 -->
      <g transform="translate(91.482724 322.222125) scale(0.11 -0.11)">
       <defs>
        <path id="TimesNewRomanPSMT-32" d="M 2934 816 
L 2638 0 
L 138 0 
L 138 116 
Q 1241 1122 1691 1759 
Q 2141 2397 2141 2925 
Q 2141 3328 1894 3587 
Q 1647 3847 1303 3847 
Q 991 3847 742 3664 
Q 494 3481 375 3128 
L 259 3128 
Q 338 3706 661 4015 
Q 984 4325 1469 4325 
Q 1984 4325 2329 3994 
Q 2675 3663 2675 3213 
Q 2675 2891 2525 2569 
Q 2294 2063 1775 1497 
Q 997 647 803 472 
L 1909 472 
Q 2247 472 2383 497 
Q 2519 522 2628 598 
Q 2738 675 2819 816 
L 2934 816 
z
" transform="scale(0.015625)"/>
        <path id="TimesNewRomanPSMT-30" d="M 231 2094 
Q 231 2819 450 3342 
Q 669 3866 1031 4122 
Q 1313 4325 1613 4325 
Q 2100 4325 2488 3828 
Q 2972 3213 2972 2159 
Q 2972 1422 2759 906 
Q 2547 391 2217 158 
Q 1888 -75 1581 -75 
Q 975 -75 572 641 
Q 231 1244 231 2094 
z
M 844 2016 
Q 844 1141 1059 588 
Q 1238 122 1591 122 
Q 1759 122 1940 273 
Q 2122 425 2216 781 
Q 2359 1319 2359 2297 
Q 2359 3022 2209 3506 
Q 2097 3866 1919 4016 
Q 1791 4119 1609 4119 
Q 1397 4119 1231 3928 
Q 1006 3669 925 3112 
Q 844 2556 844 2016 
z
" transform="scale(0.015625)"/>
       </defs>
       <use xlink:href="#TimesNewRomanPSMT-32"/>
       <use xlink:href="#TimesNewRomanPSMT-30" transform="translate(50 0)"/>
      </g>
     </g>
    </g>
    <g id="xtick_2">
     <g id="line2d_2">
      <g>
       <use xlink:href="#m1c9438561b" x="143.167771" y="307.584" style="stroke: #000000; stroke-width: 0.8"/>
      </g>
     </g>
     <g id="text_2">
      <!-- 30 -->
      <g transform="translate(137.667771 322.222125) scale(0.11 -0.11)">
       <defs>
        <path id="TimesNewRomanPSMT-33" d="M 325 3431 
Q 506 3859 782 4092 
Q 1059 4325 1472 4325 
Q 1981 4325 2253 3994 
Q 2459 3747 2459 3466 
Q 2459 3003 1878 2509 
Q 2269 2356 2469 2072 
Q 2669 1788 2669 1403 
Q 2669 853 2319 450 
Q 1863 -75 997 -75 
Q 569 -75 414 31 
Q 259 138 259 259 
Q 259 350 332 419 
Q 406 488 509 488 
Q 588 488 669 463 
Q 722 447 909 348 
Q 1097 250 1169 231 
Q 1284 197 1416 197 
Q 1734 197 1970 444 
Q 2206 691 2206 1028 
Q 2206 1275 2097 1509 
Q 2016 1684 1919 1775 
Q 1784 1900 1550 2001 
Q 1316 2103 1072 2103 
L 972 2103 
L 972 2197 
Q 1219 2228 1467 2375 
Q 1716 2522 1828 2728 
Q 1941 2934 1941 3181 
Q 1941 3503 1739 3701 
Q 1538 3900 1238 3900 
Q 753 3900 428 3381 
L 325 3431 
z
" transform="scale(0.015625)"/>
       </defs>
       <use xlink:href="#TimesNewRomanPSMT-33"/>
       <use xlink:href="#TimesNewRomanPSMT-30" transform="translate(50 0)"/>
      </g>
     </g>
    </g>
    <g id="xtick_3">
     <g id="line2d_3">
      <g>
       <use xlink:href="#m1c9438561b" x="189.352819" y="307.584" style="stroke: #000000; stroke-width: 0.8"/>
      </g>
     </g>
     <g id="text_3">
      <!-- 40 -->
      <g transform="translate(183.852819 322.222125) scale(0.11 -0.11)">
       <defs>
        <path id="TimesNewRomanPSMT-34" d="M 2978 1563 
L 2978 1119 
L 2409 1119 
L 2409 0 
L 1894 0 
L 1894 1119 
L 100 1119 
L 100 1519 
L 2066 4325 
L 2409 4325 
L 2409 1563 
L 2978 1563 
z
M 1894 1563 
L 1894 3666 
L 406 1563 
L 1894 1563 
z
" transform="scale(0.015625)"/>
       </defs>
       <use xlink:href="#TimesNewRomanPSMT-34"/>
       <use xlink:href="#TimesNewRomanPSMT-30" transform="translate(50 0)"/>
      </g>
     </g>
    </g>
    <g id="xtick_4">
     <g id="line2d_4">
      <g>
       <use xlink:href="#m1c9438561b" x="235.537867" y="307.584" style="stroke: #000000; stroke-width: 0.8"/>
      </g>
     </g>
     <g id="text_4">
      <!-- 50 -->
      <g transform="translate(230.037867 322.222125) scale(0.11 -0.11)">
       <defs>
        <path id="TimesNewRomanPSMT-35" d="M 2778 4238 
L 2534 3706 
L 1259 3706 
L 981 3138 
Q 1809 3016 2294 2522 
Q 2709 2097 2709 1522 
Q 2709 1188 2573 903 
Q 2438 619 2231 419 
Q 2025 219 1772 97 
Q 1413 -75 1034 -75 
Q 653 -75 479 54 
Q 306 184 306 341 
Q 306 428 378 495 
Q 450 563 559 563 
Q 641 563 702 538 
Q 763 513 909 409 
Q 1144 247 1384 247 
Q 1750 247 2026 523 
Q 2303 800 2303 1197 
Q 2303 1581 2056 1914 
Q 1809 2247 1375 2428 
Q 1034 2569 447 2591 
L 1259 4238 
L 2778 4238 
z
" transform="scale(0.015625)"/>
       </defs>
       <use xlink:href="#TimesNewRomanPSMT-35"/>
       <use xlink:href="#TimesNewRomanPSMT-30" transform="translate(50 0)"/>
      </g>
     </g>
    </g>
    <g id="xtick_5">
     <g id="line2d_5">
      <g>
       <use xlink:href="#m1c9438561b" x="281.722915" y="307.584" style="stroke: #000000; stroke-width: 0.8"/>
      </g>
     </g>
     <g id="text_5">
      <!-- 60 -->
      <g transform="translate(276.222915 322.222125) scale(0.11 -0.11)">
       <defs>
        <path id="TimesNewRomanPSMT-36" d="M 2869 4325 
L 2869 4209 
Q 2456 4169 2195 4045 
Q 1934 3922 1679 3669 
Q 1425 3416 1258 3105 
Q 1091 2794 978 2366 
Q 1428 2675 1881 2675 
Q 2316 2675 2634 2325 
Q 2953 1975 2953 1425 
Q 2953 894 2631 456 
Q 2244 -75 1606 -75 
Q 1172 -75 869 213 
Q 275 772 275 1663 
Q 275 2231 503 2743 
Q 731 3256 1154 3653 
Q 1578 4050 1965 4187 
Q 2353 4325 2688 4325 
L 2869 4325 
z
M 925 2138 
Q 869 1716 869 1456 
Q 869 1156 980 804 
Q 1091 453 1309 247 
Q 1469 100 1697 100 
Q 1969 100 2183 356 
Q 2397 613 2397 1088 
Q 2397 1622 2184 2012 
Q 1972 2403 1581 2403 
Q 1463 2403 1327 2353 
Q 1191 2303 925 2138 
z
" transform="scale(0.015625)"/>
       </defs>
       <use xlink:href="#TimesNewRomanPSMT-36"/>
       <use xlink:href="#TimesNewRomanPSMT-30" transform="translate(50 0)"/>
      </g>
     </g>
    </g>
    <g id="xtick_6">
     <g id="line2d_6">
      <g>
       <use xlink:href="#m1c9438561b" x="327.907962" y="307.584" style="stroke: #000000; stroke-width: 0.8"/>
      </g>
     </g>
     <g id="text_6">
      <!-- 70 -->
      <g transform="translate(322.407962 322.222125) scale(0.11 -0.11)">
       <defs>
        <path id="TimesNewRomanPSMT-37" d="M 644 4238 
L 2916 4238 
L 2916 4119 
L 1503 -88 
L 1153 -88 
L 2419 3728 
L 1253 3728 
Q 900 3728 750 3644 
Q 488 3500 328 3200 
L 238 3234 
L 644 4238 
z
" transform="scale(0.015625)"/>
       </defs>
       <use xlink:href="#TimesNewRomanPSMT-37"/>
       <use xlink:href="#TimesNewRomanPSMT-30" transform="translate(50 0)"/>
      </g>
     </g>
    </g>
    <g id="xtick_7">
     <g id="line2d_7">
      <g>
       <use xlink:href="#m1c9438561b" x="374.09301" y="307.584" style="stroke: #000000; stroke-width: 0.8"/>
      </g>
     </g>
     <g id="text_7">
      <!-- 80 -->
      <g transform="translate(368.59301 322.222125) scale(0.11 -0.11)">
       <defs>
        <path id="TimesNewRomanPSMT-38" d="M 1228 2134 
Q 725 2547 579 2797 
Q 434 3047 434 3316 
Q 434 3728 753 4026 
Q 1072 4325 1600 4325 
Q 2113 4325 2425 4047 
Q 2738 3769 2738 3413 
Q 2738 3175 2569 2928 
Q 2400 2681 1866 2347 
Q 2416 1922 2594 1678 
Q 2831 1359 2831 1006 
Q 2831 559 2490 242 
Q 2150 -75 1597 -75 
Q 994 -75 656 303 
Q 388 606 388 966 
Q 388 1247 577 1523 
Q 766 1800 1228 2134 
z
M 1719 2469 
Q 2094 2806 2194 3001 
Q 2294 3197 2294 3444 
Q 2294 3772 2109 3958 
Q 1925 4144 1606 4144 
Q 1288 4144 1088 3959 
Q 888 3775 888 3528 
Q 888 3366 970 3203 
Q 1053 3041 1206 2894 
L 1719 2469 
z
M 1375 2016 
Q 1116 1797 991 1539 
Q 866 1281 866 981 
Q 866 578 1086 336 
Q 1306 94 1647 94 
Q 1984 94 2187 284 
Q 2391 475 2391 747 
Q 2391 972 2272 1150 
Q 2050 1481 1375 2016 
z
" transform="scale(0.015625)"/>
       </defs>
       <use xlink:href="#TimesNewRomanPSMT-38"/>
       <use xlink:href="#TimesNewRomanPSMT-30" transform="translate(50 0)"/>
      </g>
     </g>
    </g>
    <g id="text_8">
     <!-- skewness -->
     <g transform="translate(215.382891 336.213219) scale(0.11 -0.11)">
      <defs>
       <path id="TimesNewRomanPSMT-73" d="M 2050 2947 
L 2050 1972 
L 1947 1972 
Q 1828 2431 1642 2597 
Q 1456 2763 1169 2763 
Q 950 2763 815 2647 
Q 681 2531 681 2391 
Q 681 2216 781 2091 
Q 878 1963 1175 1819 
L 1631 1597 
Q 2266 1288 2266 781 
Q 2266 391 1970 151 
Q 1675 -88 1309 -88 
Q 1047 -88 709 6 
Q 606 38 541 38 
Q 469 38 428 -44 
L 325 -44 
L 325 978 
L 428 978 
Q 516 541 762 319 
Q 1009 97 1316 97 
Q 1531 97 1667 223 
Q 1803 350 1803 528 
Q 1803 744 1651 891 
Q 1500 1038 1047 1263 
Q 594 1488 453 1669 
Q 313 1847 313 2119 
Q 313 2472 555 2709 
Q 797 2947 1181 2947 
Q 1350 2947 1591 2875 
Q 1750 2828 1803 2828 
Q 1853 2828 1881 2850 
Q 1909 2872 1947 2947 
L 2050 2947 
z
" transform="scale(0.015625)"/>
       <path id="TimesNewRomanPSMT-6b" d="M 1047 4444 
L 1047 1597 
L 1775 2259 
Q 2006 2472 2044 2528 
Q 2069 2566 2069 2603 
Q 2069 2666 2017 2711 
Q 1966 2756 1847 2763 
L 1847 2863 
L 3091 2863 
L 3091 2763 
Q 2834 2756 2664 2684 
Q 2494 2613 2291 2428 
L 1556 1750 
L 2291 822 
Q 2597 438 2703 334 
Q 2853 188 2966 144 
Q 3044 113 3238 113 
L 3238 0 
L 1847 0 
L 1847 113 
Q 1966 116 2008 148 
Q 2050 181 2050 241 
Q 2050 313 1925 472 
L 1047 1594 
L 1047 644 
Q 1047 366 1086 278 
Q 1125 191 1197 153 
Q 1269 116 1509 113 
L 1509 0 
L 53 0 
L 53 113 
Q 272 113 381 166 
Q 447 200 481 272 
Q 528 375 528 628 
L 528 3234 
Q 528 3731 506 3842 
Q 484 3953 434 3995 
Q 384 4038 303 4038 
Q 238 4038 106 3984 
L 53 4094 
L 903 4444 
L 1047 4444 
z
" transform="scale(0.015625)"/>
       <path id="TimesNewRomanPSMT-65" d="M 681 1784 
Q 678 1147 991 784 
Q 1303 422 1725 422 
Q 2006 422 2214 576 
Q 2422 731 2563 1106 
L 2659 1044 
Q 2594 616 2278 264 
Q 1963 -88 1488 -88 
Q 972 -88 605 314 
Q 238 716 238 1394 
Q 238 2128 614 2539 
Q 991 2950 1559 2950 
Q 2041 2950 2350 2633 
Q 2659 2316 2659 1784 
L 681 1784 
z
M 681 1966 
L 2006 1966 
Q 1991 2241 1941 2353 
Q 1863 2528 1708 2628 
Q 1553 2728 1384 2728 
Q 1125 2728 920 2526 
Q 716 2325 681 1966 
z
" transform="scale(0.015625)"/>
       <path id="TimesNewRomanPSMT-77" d="M 41 2863 
L 1241 2863 
L 1241 2747 
Q 1075 2734 1023 2687 
Q 972 2641 972 2553 
Q 972 2456 1025 2319 
L 1638 672 
L 2253 2013 
L 2091 2434 
Q 2016 2622 1894 2694 
Q 1825 2738 1638 2747 
L 1638 2863 
L 3000 2863 
L 3000 2747 
Q 2775 2738 2681 2666 
Q 2619 2616 2619 2506 
Q 2619 2444 2644 2378 
L 3294 734 
L 3897 2319 
Q 3959 2488 3959 2588 
Q 3959 2647 3898 2694 
Q 3838 2741 3659 2747 
L 3659 2863 
L 4563 2863 
L 4563 2747 
Q 4291 2706 4163 2378 
L 3206 -88 
L 3078 -88 
L 2363 1741 
L 1528 -88 
L 1413 -88 
L 494 2319 
Q 403 2547 315 2626 
Q 228 2706 41 2747 
L 41 2863 
z
" transform="scale(0.015625)"/>
       <path id="TimesNewRomanPSMT-6e" d="M 1034 2341 
Q 1538 2947 1994 2947 
Q 2228 2947 2397 2830 
Q 2566 2713 2666 2444 
Q 2734 2256 2734 1869 
L 2734 647 
Q 2734 375 2778 278 
Q 2813 200 2889 156 
Q 2966 113 3172 113 
L 3172 0 
L 1756 0 
L 1756 113 
L 1816 113 
Q 2016 113 2095 173 
Q 2175 234 2206 353 
Q 2219 400 2219 647 
L 2219 1819 
Q 2219 2209 2117 2386 
Q 2016 2563 1775 2563 
Q 1403 2563 1034 2156 
L 1034 647 
Q 1034 356 1069 288 
Q 1113 197 1189 155 
Q 1266 113 1500 113 
L 1500 0 
L 84 0 
L 84 113 
L 147 113 
Q 366 113 442 223 
Q 519 334 519 647 
L 519 1709 
Q 519 2225 495 2337 
Q 472 2450 423 2490 
Q 375 2531 294 2531 
Q 206 2531 84 2484 
L 38 2597 
L 900 2947 
L 1034 2947 
L 1034 2341 
z
" transform="scale(0.015625)"/>
      </defs>
      <use xlink:href="#TimesNewRomanPSMT-73"/>
      <use xlink:href="#TimesNewRomanPSMT-6b" transform="translate(38.916016 0)"/>
      <use xlink:href="#TimesNewRomanPSMT-65" transform="translate(88.916016 0)"/>
      <use xlink:href="#TimesNewRomanPSMT-77" transform="translate(133.300781 0)"/>
      <use xlink:href="#TimesNewRomanPSMT-6e" transform="translate(205.517578 0)"/>
      <use xlink:href="#TimesNewRomanPSMT-65" transform="translate(255.517578 0)"/>
      <use xlink:href="#TimesNewRomanPSMT-73" transform="translate(299.902344 0)"/>
      <use xlink:href="#TimesNewRomanPSMT-73" transform="translate(338.818359 0)"/>
     </g>
    </g>
   </g>
   <g id="matplotlib.axis_2">
    <g id="ytick_1">
     <g id="line2d_8">
      <defs>
       <path id="md57bf87526" d="M 0 0 
L -3.5 0 
" style="stroke: #000000; stroke-width: 0.8"/>
      </defs>
      <g>
       <use xlink:href="#md57bf87526" x="57.6" y="307.584" style="stroke: #000000; stroke-width: 0.8"/>
      </g>
     </g>
     <g id="text_9">
      <!-- 0.00 -->
      <g transform="translate(31.35 311.403062) scale(0.11 -0.11)">
       <defs>
        <path id="TimesNewRomanPSMT-2e" d="M 800 606 
Q 947 606 1047 504 
Q 1147 403 1147 259 
Q 1147 116 1045 14 
Q 944 -88 800 -88 
Q 656 -88 554 14 
Q 453 116 453 259 
Q 453 406 554 506 
Q 656 606 800 606 
z
" transform="scale(0.015625)"/>
       </defs>
       <use xlink:href="#TimesNewRomanPSMT-30"/>
       <use xlink:href="#TimesNewRomanPSMT-2e" transform="translate(50 0)"/>
       <use xlink:href="#TimesNewRomanPSMT-30" transform="translate(75 0)"/>
       <use xlink:href="#TimesNewRomanPSMT-30" transform="translate(125 0)"/>
      </g>
     </g>
    </g>
    <g id="ytick_2">
     <g id="line2d_9">
      <g>
       <use xlink:href="#md57bf87526" x="57.6" y="274.724528" style="stroke: #000000; stroke-width: 0.8"/>
      </g>
     </g>
     <g id="text_10">
      <!-- 0.02 -->
      <g transform="translate(31.35 278.543591) scale(0.11 -0.11)">
       <use xlink:href="#TimesNewRomanPSMT-30"/>
       <use xlink:href="#TimesNewRomanPSMT-2e" transform="translate(50 0)"/>
       <use xlink:href="#TimesNewRomanPSMT-30" transform="translate(75 0)"/>
       <use xlink:href="#TimesNewRomanPSMT-32" transform="translate(125 0)"/>
      </g>
     </g>
    </g>
    <g id="ytick_3">
     <g id="line2d_10">
      <g>
       <use xlink:href="#md57bf87526" x="57.6" y="241.865056" style="stroke: #000000; stroke-width: 0.8"/>
      </g>
     </g>
     <g id="text_11">
      <!-- 0.04 -->
      <g transform="translate(31.35 245.684119) scale(0.11 -0.11)">
       <use xlink:href="#TimesNewRomanPSMT-30"/>
       <use xlink:href="#TimesNewRomanPSMT-2e" transform="translate(50 0)"/>
       <use xlink:href="#TimesNewRomanPSMT-30" transform="translate(75 0)"/>
       <use xlink:href="#TimesNewRomanPSMT-34" transform="translate(125 0)"/>
      </g>
     </g>
    </g>
    <g id="ytick_4">
     <g id="line2d_11">
      <g>
       <use xlink:href="#md57bf87526" x="57.6" y="209.005585" style="stroke: #000000; stroke-width: 0.8"/>
      </g>
     </g>
     <g id="text_12">
      <!-- 0.06 -->
      <g transform="translate(31.35 212.824647) scale(0.11 -0.11)">
       <use xlink:href="#TimesNewRomanPSMT-30"/>
       <use xlink:href="#TimesNewRomanPSMT-2e" transform="translate(50 0)"/>
       <use xlink:href="#TimesNewRomanPSMT-30" transform="translate(75 0)"/>
       <use xlink:href="#TimesNewRomanPSMT-36" transform="translate(125 0)"/>
      </g>
     </g>
    </g>
    <g id="ytick_5">
     <g id="line2d_12">
      <g>
       <use xlink:href="#md57bf87526" x="57.6" y="176.146113" style="stroke: #000000; stroke-width: 0.8"/>
      </g>
     </g>
     <g id="text_13">
      <!-- 0.08 -->
      <g transform="translate(31.35 179.965175) scale(0.11 -0.11)">
       <use xlink:href="#TimesNewRomanPSMT-30"/>
       <use xlink:href="#TimesNewRomanPSMT-2e" transform="translate(50 0)"/>
       <use xlink:href="#TimesNewRomanPSMT-30" transform="translate(75 0)"/>
       <use xlink:href="#TimesNewRomanPSMT-38" transform="translate(125 0)"/>
      </g>
     </g>
    </g>
    <g id="ytick_6">
     <g id="line2d_13">
      <g>
       <use xlink:href="#md57bf87526" x="57.6" y="143.286641" style="stroke: #000000; stroke-width: 0.8"/>
      </g>
     </g>
     <g id="text_14">
      <!-- 0.10 -->
      <g transform="translate(31.35 147.105703) scale(0.11 -0.11)">
       <defs>
        <path id="TimesNewRomanPSMT-31" d="M 750 3822 
L 1781 4325 
L 1884 4325 
L 1884 747 
Q 1884 391 1914 303 
Q 1944 216 2037 169 
Q 2131 122 2419 116 
L 2419 0 
L 825 0 
L 825 116 
Q 1125 122 1212 167 
Q 1300 213 1334 289 
Q 1369 366 1369 747 
L 1369 3034 
Q 1369 3497 1338 3628 
Q 1316 3728 1258 3775 
Q 1200 3822 1119 3822 
Q 1003 3822 797 3725 
L 750 3822 
z
" transform="scale(0.015625)"/>
       </defs>
       <use xlink:href="#TimesNewRomanPSMT-30"/>
       <use xlink:href="#TimesNewRomanPSMT-2e" transform="translate(50 0)"/>
       <use xlink:href="#TimesNewRomanPSMT-31" transform="translate(75 0)"/>
       <use xlink:href="#TimesNewRomanPSMT-30" transform="translate(125 0)"/>
      </g>
     </g>
    </g>
    <g id="ytick_7">
     <g id="line2d_14">
      <g>
       <use xlink:href="#md57bf87526" x="57.6" y="110.427169" style="stroke: #000000; stroke-width: 0.8"/>
      </g>
     </g>
     <g id="text_15">
      <!-- 0.12 -->
      <g transform="translate(31.35 114.246232) scale(0.11 -0.11)">
       <use xlink:href="#TimesNewRomanPSMT-30"/>
       <use xlink:href="#TimesNewRomanPSMT-2e" transform="translate(50 0)"/>
       <use xlink:href="#TimesNewRomanPSMT-31" transform="translate(75 0)"/>
       <use xlink:href="#TimesNewRomanPSMT-32" transform="translate(125 0)"/>
      </g>
     </g>
    </g>
    <g id="ytick_8">
     <g id="line2d_15">
      <g>
       <use xlink:href="#md57bf87526" x="57.6" y="77.567697" style="stroke: #000000; stroke-width: 0.8"/>
      </g>
     </g>
     <g id="text_16">
      <!-- 0.14 -->
      <g transform="translate(31.35 81.38676) scale(0.11 -0.11)">
       <use xlink:href="#TimesNewRomanPSMT-30"/>
       <use xlink:href="#TimesNewRomanPSMT-2e" transform="translate(50 0)"/>
       <use xlink:href="#TimesNewRomanPSMT-31" transform="translate(75 0)"/>
       <use xlink:href="#TimesNewRomanPSMT-34" transform="translate(125 0)"/>
      </g>
     </g>
    </g>
    <g id="ytick_9">
     <g id="line2d_16">
      <g>
       <use xlink:href="#md57bf87526" x="57.6" y="44.708226" style="stroke: #000000; stroke-width: 0.8"/>
      </g>
     </g>
     <g id="text_17">
      <!-- 0.16 -->
      <g transform="translate(31.35 48.527288) scale(0.11 -0.11)">
       <use xlink:href="#TimesNewRomanPSMT-30"/>
       <use xlink:href="#TimesNewRomanPSMT-2e" transform="translate(50 0)"/>
       <use xlink:href="#TimesNewRomanPSMT-31" transform="translate(75 0)"/>
       <use xlink:href="#TimesNewRomanPSMT-36" transform="translate(125 0)"/>
      </g>
     </g>
    </g>
    <g id="text_18">
     <!-- Density -->
     <g transform="translate(24.976406 191.638156) rotate(-90) scale(0.11 -0.11)">
      <defs>
       <path id="TimesNewRomanPSMT-44" d="M 109 0 
L 109 116 
L 269 116 
Q 538 116 650 288 
Q 719 391 719 750 
L 719 3488 
Q 719 3884 631 3984 
Q 509 4122 269 4122 
L 109 4122 
L 109 4238 
L 1834 4238 
Q 2784 4238 3279 4022 
Q 3775 3806 4076 3303 
Q 4378 2800 4378 2141 
Q 4378 1256 3841 663 
Q 3238 0 2003 0 
L 109 0 
z
M 1319 306 
Q 1716 219 1984 219 
Q 2709 219 3187 728 
Q 3666 1238 3666 2109 
Q 3666 2988 3187 3494 
Q 2709 4000 1959 4000 
Q 1678 4000 1319 3909 
L 1319 306 
z
" transform="scale(0.015625)"/>
       <path id="TimesNewRomanPSMT-69" d="M 928 4444 
Q 1059 4444 1151 4351 
Q 1244 4259 1244 4128 
Q 1244 3997 1151 3903 
Q 1059 3809 928 3809 
Q 797 3809 703 3903 
Q 609 3997 609 4128 
Q 609 4259 701 4351 
Q 794 4444 928 4444 
z
M 1188 2947 
L 1188 647 
Q 1188 378 1227 289 
Q 1266 200 1342 156 
Q 1419 113 1622 113 
L 1622 0 
L 231 0 
L 231 113 
Q 441 113 512 153 
Q 584 194 626 287 
Q 669 381 669 647 
L 669 1750 
Q 669 2216 641 2353 
Q 619 2453 572 2492 
Q 525 2531 444 2531 
Q 356 2531 231 2484 
L 188 2597 
L 1050 2947 
L 1188 2947 
z
" transform="scale(0.015625)"/>
       <path id="TimesNewRomanPSMT-74" d="M 1031 3803 
L 1031 2863 
L 1700 2863 
L 1700 2644 
L 1031 2644 
L 1031 788 
Q 1031 509 1111 412 
Q 1191 316 1316 316 
Q 1419 316 1516 380 
Q 1613 444 1666 569 
L 1788 569 
Q 1678 263 1478 108 
Q 1278 -47 1066 -47 
Q 922 -47 784 33 
Q 647 113 581 261 
Q 516 409 516 719 
L 516 2644 
L 63 2644 
L 63 2747 
Q 234 2816 414 2980 
Q 594 3144 734 3369 
Q 806 3488 934 3803 
L 1031 3803 
z
" transform="scale(0.015625)"/>
       <path id="TimesNewRomanPSMT-79" d="M 38 2863 
L 1372 2863 
L 1372 2747 
L 1306 2747 
Q 1166 2747 1095 2686 
Q 1025 2625 1025 2534 
Q 1025 2413 1128 2197 
L 1825 753 
L 2466 2334 
Q 2519 2463 2519 2588 
Q 2519 2644 2497 2672 
Q 2472 2706 2419 2726 
Q 2366 2747 2231 2747 
L 2231 2863 
L 3163 2863 
L 3163 2747 
Q 3047 2734 2984 2696 
Q 2922 2659 2847 2556 
Q 2819 2513 2741 2316 
L 1575 -541 
Q 1406 -956 1132 -1168 
Q 859 -1381 606 -1381 
Q 422 -1381 303 -1275 
Q 184 -1169 184 -1031 
Q 184 -900 270 -820 
Q 356 -741 506 -741 
Q 609 -741 788 -809 
Q 913 -856 944 -856 
Q 1038 -856 1148 -759 
Q 1259 -663 1372 -384 
L 1575 113 
L 547 2272 
Q 500 2369 397 2513 
Q 319 2622 269 2659 
Q 197 2709 38 2747 
L 38 2863 
z
" transform="scale(0.015625)"/>
      </defs>
      <use xlink:href="#TimesNewRomanPSMT-44"/>
      <use xlink:href="#TimesNewRomanPSMT-65" transform="translate(72.216797 0)"/>
      <use xlink:href="#TimesNewRomanPSMT-6e" transform="translate(116.601562 0)"/>
      <use xlink:href="#TimesNewRomanPSMT-73" transform="translate(166.601562 0)"/>
      <use xlink:href="#TimesNewRomanPSMT-69" transform="translate(205.517578 0)"/>
      <use xlink:href="#TimesNewRomanPSMT-74" transform="translate(233.300781 0)"/>
      <use xlink:href="#TimesNewRomanPSMT-79" transform="translate(261.083984 0)"/>
     </g>
    </g>
   </g>
   <g id="patch_3">
    <path d="M 57.6 307.584 
L 57.6 41.472 
" style="fill: none; stroke: #000000; stroke-width: 0.8; stroke-linejoin: miter; stroke-linecap: square"/>
   </g>
   <g id="patch_4">
    <path d="M 414.72 307.584 
L 414.72 41.472 
" style="fill: none; stroke: #000000; stroke-width: 0.8; stroke-linejoin: miter; stroke-linecap: square"/>
   </g>
   <g id="patch_5">
    <path d="M 57.6 307.584 
L 414.72 307.584 
" style="fill: none; stroke: #000000; stroke-width: 0.8; stroke-linejoin: miter; stroke-linecap: square"/>
   </g>
   <g id="patch_6">
    <path d="M 57.6 41.472 
L 414.72 41.472 
" style="fill: none; stroke: #000000; stroke-width: 0.8; stroke-linejoin: miter; stroke-linecap: square"/>
   </g>
   <g id="text_19">
    <!-- Gaussian Distribution - skewness -->
    <g transform="translate(147.981937 35.472) scale(0.132 -0.132)">
     <defs>
      <path id="TimesNewRomanPSMT-47" d="M 3928 4334 
L 4038 2997 
L 3928 2997 
Q 3763 3497 3500 3750 
Q 3122 4116 2528 4116 
Q 1719 4116 1297 3475 
Q 944 2934 944 2188 
Q 944 1581 1178 1081 
Q 1413 581 1792 348 
Q 2172 116 2572 116 
Q 2806 116 3025 175 
Q 3244 234 3447 350 
L 3447 1575 
Q 3447 1894 3398 1992 
Q 3350 2091 3248 2142 
Q 3147 2194 2891 2194 
L 2891 2313 
L 4531 2313 
L 4531 2194 
L 4453 2194 
Q 4209 2194 4119 2031 
Q 4056 1916 4056 1575 
L 4056 278 
Q 3697 84 3347 -6 
Q 2997 -97 2569 -97 
Q 1341 -97 703 691 
Q 225 1281 225 2053 
Q 225 2613 494 3125 
Q 813 3734 1369 4063 
Q 1834 4334 2469 4334 
Q 2700 4334 2889 4296 
Q 3078 4259 3425 4131 
Q 3600 4066 3659 4066 
Q 3719 4066 3761 4120 
Q 3803 4175 3813 4334 
L 3928 4334 
z
" transform="scale(0.015625)"/>
      <path id="TimesNewRomanPSMT-61" d="M 1822 413 
Q 1381 72 1269 19 
Q 1100 -59 909 -59 
Q 613 -59 420 144 
Q 228 347 228 678 
Q 228 888 322 1041 
Q 450 1253 767 1440 
Q 1084 1628 1822 1897 
L 1822 2009 
Q 1822 2438 1686 2597 
Q 1550 2756 1291 2756 
Q 1094 2756 978 2650 
Q 859 2544 859 2406 
L 866 2225 
Q 866 2081 792 2003 
Q 719 1925 600 1925 
Q 484 1925 411 2006 
Q 338 2088 338 2228 
Q 338 2497 613 2722 
Q 888 2947 1384 2947 
Q 1766 2947 2009 2819 
Q 2194 2722 2281 2516 
Q 2338 2381 2338 1966 
L 2338 994 
Q 2338 584 2353 492 
Q 2369 400 2405 369 
Q 2441 338 2488 338 
Q 2538 338 2575 359 
Q 2641 400 2828 588 
L 2828 413 
Q 2478 -56 2159 -56 
Q 2006 -56 1915 50 
Q 1825 156 1822 413 
z
M 1822 616 
L 1822 1706 
Q 1350 1519 1213 1441 
Q 966 1303 859 1153 
Q 753 1003 753 825 
Q 753 600 887 451 
Q 1022 303 1197 303 
Q 1434 303 1822 616 
z
" transform="scale(0.015625)"/>
      <path id="TimesNewRomanPSMT-75" d="M 2709 2863 
L 2709 1128 
Q 2709 631 2732 520 
Q 2756 409 2807 365 
Q 2859 322 2928 322 
Q 3025 322 3147 375 
L 3191 266 
L 2334 -88 
L 2194 -88 
L 2194 519 
Q 1825 119 1631 15 
Q 1438 -88 1222 -88 
Q 981 -88 804 51 
Q 628 191 559 409 
Q 491 628 491 1028 
L 491 2306 
Q 491 2509 447 2587 
Q 403 2666 317 2708 
Q 231 2750 6 2747 
L 6 2863 
L 1009 2863 
L 1009 947 
Q 1009 547 1148 422 
Q 1288 297 1484 297 
Q 1619 297 1789 381 
Q 1959 466 2194 703 
L 2194 2325 
Q 2194 2569 2105 2655 
Q 2016 2741 1734 2747 
L 1734 2863 
L 2709 2863 
z
" transform="scale(0.015625)"/>
      <path id="TimesNewRomanPSMT-20" transform="scale(0.015625)"/>
      <path id="TimesNewRomanPSMT-72" d="M 1038 2947 
L 1038 2303 
Q 1397 2947 1775 2947 
Q 1947 2947 2059 2842 
Q 2172 2738 2172 2600 
Q 2172 2478 2090 2393 
Q 2009 2309 1897 2309 
Q 1788 2309 1652 2417 
Q 1516 2525 1450 2525 
Q 1394 2525 1328 2463 
Q 1188 2334 1038 2041 
L 1038 669 
Q 1038 431 1097 309 
Q 1138 225 1241 169 
Q 1344 113 1538 113 
L 1538 0 
L 72 0 
L 72 113 
Q 291 113 397 181 
Q 475 231 506 341 
Q 522 394 522 644 
L 522 1753 
Q 522 2253 501 2348 
Q 481 2444 426 2487 
Q 372 2531 291 2531 
Q 194 2531 72 2484 
L 41 2597 
L 906 2947 
L 1038 2947 
z
" transform="scale(0.015625)"/>
      <path id="TimesNewRomanPSMT-62" d="M 984 2369 
Q 1400 2947 1881 2947 
Q 2322 2947 2650 2570 
Q 2978 2194 2978 1541 
Q 2978 778 2472 313 
Q 2038 -88 1503 -88 
Q 1253 -88 995 3 
Q 738 94 469 275 
L 469 3241 
Q 469 3728 445 3840 
Q 422 3953 372 3993 
Q 322 4034 247 4034 
Q 159 4034 28 3984 
L -16 4094 
L 844 4444 
L 984 4444 
L 984 2369 
z
M 984 2169 
L 984 456 
Q 1144 300 1314 220 
Q 1484 141 1663 141 
Q 1947 141 2192 453 
Q 2438 766 2438 1363 
Q 2438 1913 2192 2208 
Q 1947 2503 1634 2503 
Q 1469 2503 1303 2419 
Q 1178 2356 984 2169 
z
" transform="scale(0.015625)"/>
      <path id="TimesNewRomanPSMT-6f" d="M 1600 2947 
Q 2250 2947 2644 2453 
Q 2978 2031 2978 1484 
Q 2978 1100 2793 706 
Q 2609 313 2286 112 
Q 1963 -88 1566 -88 
Q 919 -88 538 428 
Q 216 863 216 1403 
Q 216 1797 411 2186 
Q 606 2575 925 2761 
Q 1244 2947 1600 2947 
z
M 1503 2744 
Q 1338 2744 1170 2645 
Q 1003 2547 900 2300 
Q 797 2053 797 1666 
Q 797 1041 1045 587 
Q 1294 134 1700 134 
Q 2003 134 2200 384 
Q 2397 634 2397 1244 
Q 2397 2006 2069 2444 
Q 1847 2744 1503 2744 
z
" transform="scale(0.015625)"/>
      <path id="TimesNewRomanPSMT-2d" d="M 259 1672 
L 1875 1672 
L 1875 1200 
L 259 1200 
L 259 1672 
z
" transform="scale(0.015625)"/>
     </defs>
     <use xlink:href="#TimesNewRomanPSMT-47"/>
     <use xlink:href="#TimesNewRomanPSMT-61" transform="translate(72.216797 0)"/>
     <use xlink:href="#TimesNewRomanPSMT-75" transform="translate(116.601562 0)"/>
     <use xlink:href="#TimesNewRomanPSMT-73" transform="translate(166.601562 0)"/>
     <use xlink:href="#TimesNewRomanPSMT-73" transform="translate(205.517578 0)"/>
     <use xlink:href="#TimesNewRomanPSMT-69" transform="translate(244.433594 0)"/>
     <use xlink:href="#TimesNewRomanPSMT-61" transform="translate(272.216797 0)"/>
     <use xlink:href="#TimesNewRomanPSMT-6e" transform="translate(316.601562 0)"/>
     <use xlink:href="#TimesNewRomanPSMT-20" transform="translate(366.601562 0)"/>
     <use xlink:href="#TimesNewRomanPSMT-44" transform="translate(391.601562 0)"/>
     <use xlink:href="#TimesNewRomanPSMT-69" transform="translate(463.818359 0)"/>
     <use xlink:href="#TimesNewRomanPSMT-73" transform="translate(491.601562 0)"/>
     <use xlink:href="#TimesNewRomanPSMT-74" transform="translate(530.517578 0)"/>
     <use xlink:href="#TimesNewRomanPSMT-72" transform="translate(558.300781 0)"/>
     <use xlink:href="#TimesNewRomanPSMT-69" transform="translate(591.601562 0)"/>
     <use xlink:href="#TimesNewRomanPSMT-62" transform="translate(619.384766 0)"/>
     <use xlink:href="#TimesNewRomanPSMT-75" transform="translate(669.384766 0)"/>
     <use xlink:href="#TimesNewRomanPSMT-74" transform="translate(719.384766 0)"/>
     <use xlink:href="#TimesNewRomanPSMT-69" transform="translate(747.167969 0)"/>
     <use xlink:href="#TimesNewRomanPSMT-6f" transform="translate(774.951172 0)"/>
     <use xlink:href="#TimesNewRomanPSMT-6e" transform="translate(824.951172 0)"/>
     <use xlink:href="#TimesNewRomanPSMT-20" transform="translate(874.951172 0)"/>
     <use xlink:href="#TimesNewRomanPSMT-2d" transform="translate(899.951172 0)"/>
     <use xlink:href="#TimesNewRomanPSMT-20" transform="translate(933.251953 0)"/>
     <use xlink:href="#TimesNewRomanPSMT-73" transform="translate(958.251953 0)"/>
     <use xlink:href="#TimesNewRomanPSMT-6b" transform="translate(997.167969 0)"/>
     <use xlink:href="#TimesNewRomanPSMT-65" transform="translate(1047.167969 0)"/>
     <use xlink:href="#TimesNewRomanPSMT-77" transform="translate(1091.552734 0)"/>
     <use xlink:href="#TimesNewRomanPSMT-6e" transform="translate(1163.769531 0)"/>
     <use xlink:href="#TimesNewRomanPSMT-65" transform="translate(1213.769531 0)"/>
     <use xlink:href="#TimesNewRomanPSMT-73" transform="translate(1258.154297 0)"/>
     <use xlink:href="#TimesNewRomanPSMT-73" transform="translate(1297.070312 0)"/>
    </g>
   </g>
   <g id="legend_1">
    <g id="patch_7">
     <path d="M 321.876563 81.377937 
L 407.02 81.377937 
Q 409.22 81.377937 409.22 79.177937 
L 409.22 49.172 
Q 409.22 46.972 407.02 46.972 
L 321.876563 46.972 
Q 319.676563 46.972 319.676563 49.172 
L 319.676563 79.177937 
Q 319.676563 81.377937 321.876563 81.377937 
z
" style="fill: #ffffff; opacity: 0.8; stroke: #cccccc; stroke-linejoin: miter"/>
    </g>
    <g id="patch_8">
     <path d="M 324.076563 59.072 
L 346.076563 59.072 
L 346.076563 51.372 
L 324.076563 51.372 
z
" style="fill: #ff0000; fill-opacity: 0.3; stroke: #ff0000; stroke-linejoin: miter"/>
    </g>
    <g id="text_20">
     <!-- Bad Weld -->
     <g transform="translate(354.876563 59.072) scale(0.11 -0.11)">
      <defs>
       <path id="TimesNewRomanPSMT-42" d="M 2956 2163 
Q 3397 2069 3616 1863 
Q 3919 1575 3919 1159 
Q 3919 844 3719 555 
Q 3519 266 3170 133 
Q 2822 0 2106 0 
L 106 0 
L 106 116 
L 266 116 
Q 531 116 647 284 
Q 719 394 719 750 
L 719 3488 
Q 719 3881 628 3984 
Q 506 4122 266 4122 
L 106 4122 
L 106 4238 
L 1938 4238 
Q 2450 4238 2759 4163 
Q 3228 4050 3475 3764 
Q 3722 3478 3722 3106 
Q 3722 2788 3528 2536 
Q 3334 2284 2956 2163 
z
M 1319 2331 
Q 1434 2309 1582 2298 
Q 1731 2288 1909 2288 
Q 2366 2288 2595 2386 
Q 2825 2484 2947 2687 
Q 3069 2891 3069 3131 
Q 3069 3503 2766 3765 
Q 2463 4028 1881 4028 
Q 1569 4028 1319 3959 
L 1319 2331 
z
M 1319 306 
Q 1681 222 2034 222 
Q 2600 222 2897 476 
Q 3194 731 3194 1106 
Q 3194 1353 3059 1581 
Q 2925 1809 2622 1940 
Q 2319 2072 1872 2072 
Q 1678 2072 1540 2065 
Q 1403 2059 1319 2044 
L 1319 306 
z
" transform="scale(0.015625)"/>
       <path id="TimesNewRomanPSMT-64" d="M 2222 322 
Q 2013 103 1813 7 
Q 1613 -88 1381 -88 
Q 913 -88 563 304 
Q 213 697 213 1313 
Q 213 1928 600 2439 
Q 988 2950 1597 2950 
Q 1975 2950 2222 2709 
L 2222 3238 
Q 2222 3728 2198 3840 
Q 2175 3953 2125 3993 
Q 2075 4034 2000 4034 
Q 1919 4034 1784 3984 
L 1744 4094 
L 2597 4444 
L 2738 4444 
L 2738 1134 
Q 2738 631 2761 520 
Q 2784 409 2836 365 
Q 2888 322 2956 322 
Q 3041 322 3181 375 
L 3216 266 
L 2366 -88 
L 2222 -88 
L 2222 322 
z
M 2222 541 
L 2222 2016 
Q 2203 2228 2109 2403 
Q 2016 2578 1861 2667 
Q 1706 2756 1559 2756 
Q 1284 2756 1069 2509 
Q 784 2184 784 1559 
Q 784 928 1059 592 
Q 1334 256 1672 256 
Q 1956 256 2222 541 
z
" transform="scale(0.015625)"/>
       <path id="TimesNewRomanPSMT-57" d="M 5991 4238 
L 5991 4122 
Q 5825 4122 5722 4062 
Q 5619 4003 5525 3841 
Q 5463 3731 5328 3319 
L 4147 -97 
L 4022 -97 
L 3056 2613 
L 2097 -97 
L 1984 -97 
L 725 3422 
Q 584 3816 547 3888 
Q 484 4006 376 4064 
Q 269 4122 84 4122 
L 84 4238 
L 1653 4238 
L 1653 4122 
L 1578 4122 
Q 1413 4122 1325 4047 
Q 1238 3972 1238 3866 
Q 1238 3756 1375 3363 
L 2209 984 
L 2913 3006 
L 2788 3363 
L 2688 3647 
Q 2622 3803 2541 3922 
Q 2500 3981 2441 4022 
Q 2363 4078 2284 4103 
Q 2225 4122 2097 4122 
L 2097 4238 
L 3747 4238 
L 3747 4122 
L 3634 4122 
Q 3459 4122 3378 4047 
Q 3297 3972 3297 3844 
Q 3297 3684 3438 3288 
L 4250 984 
L 5056 3319 
Q 5194 3706 5194 3856 
Q 5194 3928 5148 3990 
Q 5103 4053 5034 4078 
Q 4916 4122 4725 4122 
L 4725 4238 
L 5991 4238 
z
" transform="scale(0.015625)"/>
       <path id="TimesNewRomanPSMT-6c" d="M 1184 4444 
L 1184 647 
Q 1184 378 1223 290 
Q 1263 203 1344 158 
Q 1425 113 1647 113 
L 1647 0 
L 244 0 
L 244 113 
Q 441 113 512 153 
Q 584 194 625 287 
Q 666 381 666 647 
L 666 3247 
Q 666 3731 644 3842 
Q 622 3953 573 3993 
Q 525 4034 450 4034 
Q 369 4034 244 3984 
L 191 4094 
L 1044 4444 
L 1184 4444 
z
" transform="scale(0.015625)"/>
      </defs>
      <use xlink:href="#TimesNewRomanPSMT-42"/>
      <use xlink:href="#TimesNewRomanPSMT-61" transform="translate(66.699219 0)"/>
      <use xlink:href="#TimesNewRomanPSMT-64" transform="translate(111.083984 0)"/>
      <use xlink:href="#TimesNewRomanPSMT-20" transform="translate(161.083984 0)"/>
      <use xlink:href="#TimesNewRomanPSMT-57" transform="translate(184.333984 0)"/>
      <use xlink:href="#TimesNewRomanPSMT-65" transform="translate(270.71875 0)"/>
      <use xlink:href="#TimesNewRomanPSMT-6c" transform="translate(315.103516 0)"/>
      <use xlink:href="#TimesNewRomanPSMT-64" transform="translate(342.886719 0)"/>
     </g>
    </g>
    <g id="patch_9">
     <path d="M 324.076563 74.624969 
L 346.076563 74.624969 
L 346.076563 66.924969 
L 324.076563 66.924969 
z
" style="fill: #008000; fill-opacity: 0.3; stroke: #008000; stroke-linejoin: miter"/>
    </g>
    <g id="text_21">
     <!-- Good Weld -->
     <g transform="translate(354.876563 74.624969) scale(0.11 -0.11)">
      <use xlink:href="#TimesNewRomanPSMT-47"/>
      <use xlink:href="#TimesNewRomanPSMT-6f" transform="translate(72.216797 0)"/>
      <use xlink:href="#TimesNewRomanPSMT-6f" transform="translate(122.216797 0)"/>
      <use xlink:href="#TimesNewRomanPSMT-64" transform="translate(172.216797 0)"/>
      <use xlink:href="#TimesNewRomanPSMT-20" transform="translate(222.216797 0)"/>
      <use xlink:href="#TimesNewRomanPSMT-57" transform="translate(245.466797 0)"/>
      <use xlink:href="#TimesNewRomanPSMT-65" transform="translate(331.851562 0)"/>
      <use xlink:href="#TimesNewRomanPSMT-6c" transform="translate(376.236328 0)"/>
      <use xlink:href="#TimesNewRomanPSMT-64" transform="translate(404.019531 0)"/>
     </g>
    </g>
   </g>
  </g>
 </g>
 <defs>
  <clipPath id="p03172c0571">
   <rect x="57.6" y="41.472" width="357.12" height="266.112"/>
  </clipPath>
 </defs>
</svg>
